PathFileType	3	(X/Y/Z)	C:\Users\dbak576\Desktop\Duncan Bakke Modelling Files\Output\AB08\_12Mar_ss_12ms_01\AB08_12Mar_ss_12ms_01.trc
DataRate	CameraRate	NumFrames	NumMarkers	Units	OrigDataRate	OrigDataStartFrame	OrigNumFrames
200.0	200.0	4	42	mm	200.0	4196	3036	
Frame#	Time	LASI			RASI			LPSI			RPSI			LTH1			LTH2			LTH3			LTH4			LMFC			LLFC			LTB1			LTB2			LTB3			LTB4			LMMAL			LLMAL			LCAL			LToe			LMT1			LMT5			RTH1			RTH2			RTH3			RTH4			RMFC			RLFC			RTB1			RTB2			RTB3			RTB4			RMMAL			RLMAL			RCAL			RToe			RMT1			RMT5			C7			T10			LACR1			RACR1			CLAV			RBack			
		X1	Y1	Z1	X2	Y2	Z2	X3	Y3	Z3	X4	Y4	Z4	X5	Y5	Z5	X6	Y6	Z6	X7	Y7	Z7	X8	Y8	Z8	X9	Y9	Z9	X10	Y10	Z10	X11	Y11	Z11	X12	Y12	Z12	X13	Y13	Z13	X14	Y14	Z14	X15	Y15	Z15	X16	Y16	Z16	X17	Y17	Z17	X18	Y18	Z18	X19	Y19	Z19	X20	Y20	Z20	X21	Y21	Z21	X22	Y22	Z22	X23	Y23	Z23	X24	Y24	Z24	X25	Y25	Z25	X26	Y26	Z26	X27	Y27	Z27	X28	Y28	Z28	X29	Y29	Z29	X30	Y30	Z30	X31	Y31	Z31	X32	Y32	Z32	X33	Y33	Z33	X34	Y34	Z34	X35	Y35	Z35	X36	Y36	Z36	X37	Y37	Z37	X38	Y38	Z38	X39	Y39	Z39	X40	Y40	Z40	X41	Y41	Z41	X42	Y42	Z42	
4196	20.97	392.27435	948.95276	-958.03491	642.46405	970.16229	-980.32935	479.98212	971.86121	-742.37518	604.71979	974.74231	-749.63666	340.97635	667.36292	-988.14911	328.70959	634.38647	-968.78888	368.64651	582.30756	-976.18268	356.03842	620.97437	-983.7373	434.72583	480.14395	-912.38525	312.75009	497.93765	-874.31952	288.9957	434.11966	-792.82391	299.50363	390.09714	-721.31885	318.77023	349.79401	-751.64532	308.14124	379.38333	-778.71179	429.2131	244.10664	-565.57037	340.96893	258.23917	-552.13708	386.14191	311.21713	-474.21988	419.72778	22.966412	-554.75861	442.75574	108.00201	-524.18951	324.63333	116.10322	-513.75525	645.27411	719.5755	-1063.7439	628.73993	654.9176	-1068.8149	670.93036	621.23486	-1037.1814	682.20929	678.31763	-1037.058	534.54089	518.46051	-1040.2559	662.18304	516.79822	-1011.6768	660.92163	398.59341	-1031.2753	646.29956	363.59921	-1044.0359	631.62842	315.22659	-1049.9218	660.3407	313.82809	-1003.7954	531.43121	122.97571	-1010.188	614.56763	107.58995	-971.84119	557.17065	58.746578	-905.90936	583.45465	40.03643	-1208.7932	541.17908	40.105953	-1119.7954	660.68298	44.342663	-1086.2164	494.23886	1479.8882	-804.14325	503.95596	1225.4119	-737.27277	328.75894	1439.4225	-875.24426	656.39166	1453.3148	-859.12402	501.8313	1408.0052	-955.77722	621.91681	1377.5739	-747.95392
4197	20.975	392.59058	950.36932	-957.53754	643.16754	971.22467	-980.03894	481.13663	972.93555	-741.95972	605.60864	976.46637	-749.51764	341.60727	670.19189	-991.0965	329.02927	636.97723	-972.47522	369.05527	584.82745	-980.50555	356.48239	623.82544	-987.40613	435.62448	482.11295	-916.8631	312.01016	499.73669	-880.52881	288.44678	435.95142	-799.68646	298.97241	391.99838	-728.04236	319.5636	351.72711	-759.03827	307.8652	381.16245	-785.36847	429.03912	247.04401	-570.95459	340.73291	260.85925	-557.58246	385.78372	313.67746	-479.06509	420.40094	26.73126	-561.20404	443.02362	110.91624	-530.3233	324.49014	118.71465	-519.79224	645.21667	719.48663	-1061.4719	629.05316	654.87067	-1066.1334	671.13953	621.24414	-1034.5588	682.35986	678.427	-1034.7555	534.59143	518.32001	-1035.3055	662.67444	516.92609	-1007.9229	661.19275	398.62711	-1027.1089	646.5567	363.61429	-1039.5046	631.72455	315.18033	-1044.8989	660.76538	313.98627	-999.17316	531.86493	123.18622	-1004.1772	614.85956	107.51485	-965.883	557.3515	58.833672	-899.65961	583.57648	40.101784	-1202.6814	541.25336	40.18874	-1113.5101	660.87933	44.293907	-1080.0532	494.85947	1481.278	-803.82837	505.14215	1226.373	-738.44751	329.21112	1440.5061	-874.16547	656.94202	1454.8485	-859.16718	502.12817	1409.4246	-955.38965	623.05261	1378.9846	-747.9859
4198	20.98	393.21429	951.92151	-956.6391	643.73175	972.15076	-979.54407	482.15405	974.06873	-741.48206	606.49457	978.27271	-749.24249	342.23965	673.13873	-994.03424	329.34952	639.54486	-976.04309	369.33325	587.60217	-984.68439	356.9006	626.63544	-990.98834	435.72415	484.76907	-922.07037	311.2887	501.73056	-886.77405	288.17493	437.7894	-806.70886	298.09021	393.9834	-734.60773	319.19952	353.81747	-765.57843	307.53644	383.01355	-791.94672	428.90253	250.26118	-576.70593	340.42813	263.64099	-562.89929	385.49008	315.73956	-483.96301	420.64511	29.471869	-569.47748	443.11298	113.71985	-537.62164	324.73395	121.02318	-526.56372	645.12769	719.34399	-1059.0027	629.13635	654.79767	-1063.1318	671.26105	621.33374	-1031.7607	682.48621	678.55505	-1032.297	534.87677	518.08704	-1030.7014	663.06464	517.00342	-1004.1255	661.57031	398.5993	-1022.8052	646.64355	363.58423	-1034.9799	631.81519	315.2435	-1040.069	661.21381	314.07898	-994.54401	532.24823	123.44732	-998.12323	615.51978	107.47453	-959.37659	557.4881	58.879215	-893.52344	583.65161	40.114548	-1196.5021	541.44678	40.343262	-1107.4235	661.04767	44.264896	-1073.9479	495.43207	1482.667	-803.43274	506.08289	1227.7777	-738.10992	329.59265	1441.5803	-873.21655	657.4516	1456.4124	-859.1073	502.40375	1410.8186	-955.03436	624.09894	1380.3486	-748.01892
4199	20.985	393.15759	953.54053	-956.83618	644.35992	973.13562	-979.21082	483.142	975.37042	-741.04358	607.34662	979.97668	-748.89594	342.83383	676.18536	-996.93719	329.61789	642.25342	-979.63208	369.48059	590.34021	-988.73529	357.36859	629.58551	-994.54724	435.92676	487.1409	-926.85175	310.58658	503.78424	-892.92725	287.68805	439.65326	-813.01624	297.66122	396.21725	-741.24939	318.80185	355.7847	-771.89154	307.26709	385.1394	-798.45508	428.90457	253.55664	-582.50256	340.26974	266.53568	-568.37439	385.27298	317.39841	-488.96176	420.97443	32.075886	-578.18524	443.10638	116.17082	-545.60938	325.78632	122.83659	-533.97021	645.08508	719.32019	-1056.5516	628.98053	654.56329	-1060.1093	671.49786	621.43481	-1028.7482	682.68445	678.69818	-1029.752	535.06976	517.96973	-1026.6099	663.35651	517.13519	-1000.238	661.57074	398.54126	-1018.463	646.63739	363.52402	-1030.3889	631.72815	315.16129	-1035.257	661.79205	314.09665	-990.18115	532.61951	123.73953	-992.146	615.84601	107.43585	-953.2915	557.5976	58.956123	-887.31006	583.77899	40.218643	-1190.3353	541.47205	40.449795	-1101.3254	661.17505	44.241512	-1067.8109	496.01215	1484.0624	-803.0592	507.09528	1229.0966	-737.72479	330.00555	1442.6821	-872.15363	657.96124	1458.005	-859.1496	502.52802	1412.1882	-954.61414	625.13116	1381.775	-747.95892
